<?xml version="1.0" encoding="utf-8"?>
<!-- Generator: Adobe Illustrator 25.2.0, SVG Export Plug-In . SVG Version: 6.00 Build 0)  -->
<svg version="1.1" id="Warstwa_1" xmlns="http://www.w3.org/2000/svg" xmlns:xlink="http://www.w3.org/1999/xlink" x="0px" y="0px"
	 viewBox="150 300 1920 1080"  >
<path d="M343.1,465.8L343.1,465.8z"/>
<path fill="#4F008F" d="M314.2,491.3v5.5H217v-5.5c0-26.8,21.8-48.6,48.6-48.6S314.2,464.5,314.2,491.3z"/>
<path d="M487.5,393.3L487.5,393.3z"/>
<path d="M442.5,345.7L442.5,345.7z"/>
<path fill="#4F008F" d="M1105.6,442.8l0.1-22.5c0.1-41.1-33.2-74.5-74.3-74.5l-917.8-2.7c-41,0-74.3,33.3-74.3,74.3v202.5c0,41,33.3,74.3,74.3,74.3
	h42.6l0.1-158.8c0-3.8,0.5-7.4,1.3-10.9c2.7-10.7,9.8-19.5,19.1-24.8v-10.9c0-46.6,37.3-84.5,83.7-85.4c48.1-1,87.2,38.9,87.2,87
	v10.6c10.6,6.6,17.9,18.3,18.6,31.9c0.1,0.8,0.1,1.7,0.1,2.5l-0.1,111.7c0,26-20,47.1-44.6,47.1H156.2v156.7c0,10.7,13,16,20.6,8.4
	l52.9-53.4c8.3-8.5,19.7-13.2,31.6-13.2l770.2,2.3c41-0.1,74.1-33.3,74.1-74.3C1105.7,636.3,1105.6,504,1105.6,442.8z M633.5,692.9
	H461.4V436.1h171.8v43.6H513.9v62h110.3v42.9H513.9v64.6h119.6V692.9z M838.1,692.9h-51.7V579.3c0-11.9-3.1-21.3-9.2-28.1
	c-6.1-6.8-14.7-10.2-25.6-10.2c-7.2,0-13.7,1.6-19.4,4.7c-5.7,3.2-10.1,7.7-13.3,13.7c-3.2,6-4.7,13.3-4.7,21.9v111.5h-51.7V500.2
	h48.8l0.7,39.8c4.9-12.2,11.6-21.9,20-29.1c10.3-8.8,23.6-13.2,39.9-13.2c13.3,0,25,2.9,34.9,8.7c9.9,5.8,17.6,14.1,23.1,25
	c5.4,10.9,8.2,23.8,8.2,38.9V692.9z M1032.4,658.5c-4.8,8-11,14.8-18.4,20.6c-7.5,5.8-16.1,10.1-25.8,13.1c-9.7,3-20.3,4.5-31.8,4.5
	c-19.4,0-36.2-4.2-50.2-12.5c-14.1-8.3-24.9-19.9-32.6-34.8c-7.6-14.9-11.5-32.2-11.5-52c0-20,3.8-37.4,11.5-52.3
	c7.7-14.9,18.5-26.5,32.6-34.8c14.1-8.3,30.8-12.5,50.2-12.5c11.4,0,21.9,1.5,31.5,4.5c9.6,3,18.2,7.2,25.7,12.7
	c7.5,5.5,13.6,12.2,18.4,20.2c4.8,7.9,8.2,16.8,10,26.7l-48.1,9c-1-5.1-2.7-9.6-4.8-13.5c-2.2-4-4.8-7.4-7.9-10.2
	c-3.1-2.8-6.7-5-10.8-6.5c-4.1-1.5-8.6-2.2-13.5-2.2c-9.2,0-16.9,2.5-23.2,7.4c-6.3,4.9-11,11.8-14.1,20.7
	c-3.2,8.9-4.7,19.1-4.7,30.7c0,11.4,1.6,21.5,4.7,30.3c3.2,8.9,7.9,15.8,14.1,20.9c6.3,5.1,14,7.6,23.2,7.6c4.9,0,9.5-0.8,13.6-2.3
	c4.1-1.5,7.8-3.8,11-6.7c3.2-2.9,5.9-6.5,8.1-10.6c2.2-4.1,3.7-8.8,4.6-14l48.1,8.8C1040.6,641.4,1037.2,650.5,1032.4,658.5z"/>
<path d="M190,465.8L190,465.8z"/>
<path d="M487.8,578.2L487.8,578.2z"/>
<path d="M370.4,578.2L370.4,578.2z"/>
<path d="M487.8,554.9L487.8,554.9z"/>
<path d="M370.4,554.9L370.4,554.9z"/>
<g>
	<path d="M1255.3,698.9c-22.7,0-43.1-5.2-61.1-15.5c-18-10.3-32.2-25.3-42.6-45c-10.4-19.6-15.6-43.4-15.6-71.2
		c0-27.9,5.2-51.7,15.7-71.4c10.5-19.7,24.7-34.7,42.7-45.1c18-10.3,38.3-15.5,60.8-15.5c14.6,0,28.2,2,40.8,6.1
		c12.6,4.1,23.8,10,33.5,17.8c9.8,7.8,17.7,17.4,24,28.7c6.2,11.3,10.3,24.2,12.2,38.7h-53.2c-1.2-7.1-3.4-13.4-6.6-18.9
		c-3.3-5.5-7.4-10.1-12.2-14c-4.9-3.8-10.5-6.8-16.8-8.8c-6.3-2-13.2-3-20.5-3c-13.3,0-25,3.3-35.1,10c-10.1,6.7-17.9,16.3-23.4,29
		c-5.6,12.7-8.4,28.1-8.4,46.3c0,18.5,2.8,34.1,8.4,46.7c5.6,12.6,13.4,22.2,23.4,28.6c10,6.4,21.6,9.7,34.8,9.7
		c7.4,0,14.2-1,20.4-3c6.3-2,11.9-4.9,16.9-8.8c5-3.8,9.1-8.5,12.4-14c3.3-5.5,5.5-11.8,6.8-18.8h53.2c-1.4,12-4.9,23.4-10.6,34.3
		c-5.7,10.9-13.2,20.7-22.7,29.3c-9.4,8.6-20.6,15.4-33.6,20.3C1286.1,696.4,1271.5,698.9,1255.3,698.9z"/>
	<path d="M1442.7,584v111.5H1391V438.7h50.7v112.2h-4.1c5.1-16.1,12.7-28.5,23-37.3c10.3-8.8,23.6-13.2,39.9-13.2
		c13.3,0,25,2.9,34.9,8.7c9.9,5.8,17.7,14.1,23.2,25s8.3,23.8,8.3,38.9v122.5h-51.9V581.9c0-11.9-3.1-21.3-9.2-28.1
		c-6.1-6.8-14.7-10.2-25.6-10.2c-7.2,0-13.7,1.6-19.4,4.7c-5.7,3.2-10.1,7.7-13.3,13.7C1444.2,568.1,1442.7,575.4,1442.7,584z"/>
	<path d="M1652.4,699.3c-12.2,0-23.1-2.2-32.8-6.5c-9.7-4.3-17.3-10.7-22.9-19.3c-5.6-8.6-8.4-19.2-8.4-32c0-10.7,2-19.6,5.9-26.9
		c4-7.2,9.4-13,16.2-17.4c6.8-4.4,14.6-7.7,23.3-10c8.7-2.3,17.8-3.9,27.3-4.8c11.1-1.1,20.1-2.2,27-3.2c6.8-1,11.8-2.5,15-4.7
		c3.2-2.1,4.7-5.3,4.7-9.4v-0.9c0-5.5-1.2-10.2-3.4-14c-2.3-3.8-5.7-6.7-10.3-8.7c-4.5-2-10-3-16.5-3c-6.7,0-12.5,1-17.4,3
		c-4.9,2-9,4.7-12.1,8c-3.1,3.3-5.4,7.1-6.9,11.2l-47.4-7.8c3.3-11.3,8.8-20.8,16.5-28.6c7.7-7.8,17.3-13.8,28.7-17.9
		c11.4-4.1,24.3-6.2,38.7-6.2c10.3,0,20.4,1.2,30.2,3.7c9.8,2.5,18.5,6.3,26.3,11.5c7.8,5.2,13.9,11.9,18.4,20.2
		c4.5,8.3,6.8,18.3,6.8,29.9v129.8h-48.9v-26.7h-1.7c-3.1,6-7.2,11.2-12.4,15.8c-5.2,4.5-11.4,8.1-18.7,10.8
		C1670.4,697.9,1662,699.3,1652.4,699.3z M1667.1,662.9c8.2,0,15.3-1.6,21.5-4.8c6.1-3.2,10.9-7.6,14.4-13.1
		c3.4-5.5,5.2-11.7,5.2-18.4v-20.9c-1.5,1.2-3.8,2.2-6.9,3.1c-3.1,0.9-6.5,1.7-10.3,2.4c-3.8,0.7-7.5,1.3-11.2,1.9
		c-3.7,0.6-7,1-9.8,1.4c-6.3,0.9-11.9,2.4-16.7,4.5c-4.8,2.1-8.6,4.8-11.2,8.2c-2.6,3.4-4,7.7-4,13c0,4.9,1.3,9.1,3.8,12.5
		c2.5,3.4,6,5.9,10.3,7.7C1656.5,662,1661.5,662.9,1667.1,662.9z"/>
	<path d="M1887.2,502.8v39.5H1773v-39.5H1887.2z M1799.5,457h51.7v182.1c0,6.1,1.3,10.6,4,13.5c2.7,2.9,7.2,4.4,13.5,4.4
		c2,0,4.7-0.3,8.3-0.8c3.6-0.5,6.3-1,8.1-1.5l7.4,38.8c-5.7,1.7-11.5,2.9-17.1,3.6c-5.7,0.7-11.1,1-16.3,1
		c-19.3,0-34.1-4.7-44.3-14.1c-10.2-9.4-15.3-22.9-15.3-40.5V457z"/>
</g>
<path fill="#4F008F" d="M300.3,573c0,12.5-6.6,23.5-16.5,29.6v62.9h-36.4v-62.9c-9.9-6.1-16.5-17.1-16.5-29.6c0-19.2,15.5-34.7,34.7-34.7
	S300.3,553.8,300.3,573z"/>
</svg>
